<?xml version="1.0" encoding="utf-8"?>
<!-- Generator: Adobe Illustrator 24.3.0, SVG Export Plug-In . SVG Version: 6.00 Build 0)  -->
<svg version="1.1" xmlns="http://www.w3.org/2000/svg" xmlns:xlink="http://www.w3.org/1999/xlink" x="0px" y="0px"
	 viewBox="0 0 500 500" style="enable-background:new 0 0 500 500;" xml:space="preserve">
<style type="text/css">
	.st0{display:none;}
	.st1{display:inline;fill:#BABEF4;}
	.st2{display:inline;fill:#D9DCFC;}
	.st3{fill:#C7CFFF;stroke:#6F82C1;stroke-miterlimit:10;}
	.st4{fill:#909FDD;stroke:#6F82C1;stroke-miterlimit:10;}
	.st5{fill:#7487C4;stroke:#6F82C1;stroke-miterlimit:10;}
	.st6{fill:#C7CFFF;stroke:#8497D3;stroke-miterlimit:10;}
</style>
<g id="Layer_2" class="st0">
	<rect class="st1" width="500" height="500"/>
	<polygon class="st2" points="369.94,47.02 365.37,43.47 364.77,49.22 362.59,43.86 359.19,48.54 359.98,42.81 354.7,45.17 
		358.25,40.6 352.49,40 357.85,37.82 353.17,34.42 358.9,35.21 356.55,29.93 361.11,33.48 361.72,27.72 363.9,33.08 367.29,28.4 
		366.5,34.13 371.79,31.78 368.24,36.35 373.99,36.95 368.63,39.13 373.31,42.53 367.58,41.73 	"/>
	<polygon class="st2" points="277.55,116.41 272.99,112.86 272.38,118.62 270.21,113.26 266.81,117.94 267.6,112.21 262.31,114.56 
		265.87,110 260.11,109.39 265.47,107.21 260.79,103.82 266.52,104.61 264.16,99.32 268.73,102.87 269.33,97.12 271.51,102.48 
		274.91,97.8 274.12,103.53 279.41,101.17 275.85,105.74 281.61,106.34 276.25,108.52 280.93,111.92 275.2,111.13 	"/>
	<polygon class="st2" points="140.56,74.92 132.62,68.74 131.57,78.75 127.78,69.42 121.86,77.57 123.24,67.6 114.05,71.7 
		120.23,63.75 110.21,62.7 119.54,58.91 111.39,53 121.37,54.38 117.27,45.18 125.21,51.36 126.26,41.35 130.05,50.68 135.97,42.53 
		134.59,52.5 143.78,48.4 137.6,56.35 147.61,57.4 138.29,61.19 146.44,67.1 136.46,65.72 	"/>
	<polygon class="st2" points="61.4,141.25 56.83,137.7 56.23,143.45 54.05,138.09 50.65,142.77 51.44,137.04 46.16,139.4 
		49.71,134.83 43.96,134.23 49.32,132.05 44.63,128.65 50.37,129.44 48.01,124.16 52.58,127.71 53.18,121.95 55.36,127.31 
		58.76,122.63 57.97,128.36 63.25,126.01 59.7,130.58 65.45,131.18 60.09,133.36 64.78,136.76 59.04,135.96 	"/>
	<polygon class="st2" points="61.4,438.74 56.83,435.19 56.23,440.94 54.05,435.58 50.65,440.26 51.44,434.53 46.16,436.89 
		49.71,432.32 43.96,431.72 49.32,429.54 44.63,426.14 50.37,426.93 48.01,421.65 52.58,425.2 53.18,419.45 55.36,424.81 
		58.76,420.12 57.97,425.85 63.25,423.5 59.7,428.07 65.45,428.67 60.09,430.85 64.78,434.25 59.04,433.46 	"/>
	<polygon class="st2" points="181.51,477.82 176.95,474.27 176.34,480.03 174.17,474.67 170.77,479.35 171.56,473.62 166.27,475.97 
		169.83,471.41 164.07,470.8 169.43,468.62 164.75,465.22 170.48,466.02 168.13,460.73 172.69,464.28 173.3,458.53 175.47,463.89 
		178.87,459.21 178.08,464.94 183.37,462.58 179.81,467.15 185.57,467.75 180.21,469.93 184.89,473.33 179.16,472.54 	"/>
	<polygon class="st2" points="456.48,369.75 451.91,366.2 451.31,371.95 449.13,366.59 445.73,371.28 446.53,365.54 441.24,367.9 
		444.79,363.33 439.04,362.73 444.4,360.55 439.72,357.15 445.45,357.94 443.09,352.66 447.66,356.21 448.26,350.46 450.44,355.82 
		453.84,351.13 453.05,356.87 458.33,354.51 454.78,359.08 460.54,359.68 455.18,361.86 459.86,365.26 454.13,364.47 	"/>
	<polygon class="st2" points="409.92,463.98 395.33,452.63 393.41,471.01 386.45,453.89 375.59,468.85 378.12,450.54 361.25,458.06 
		372.59,443.48 354.21,441.56 371.33,434.6 356.38,423.74 374.68,426.27 367.16,409.4 381.74,420.74 383.67,402.36 390.63,419.48 
		401.48,404.53 398.95,422.83 415.83,415.31 404.48,429.89 422.86,431.82 405.74,438.78 420.7,449.63 402.39,447.1 	"/>
	<polygon class="st2" points="256.69,410.91 252.13,407.36 251.52,413.11 249.35,407.75 245.95,412.43 246.74,406.7 241.45,409.06 
		245.01,404.49 239.25,403.89 244.61,401.71 239.93,398.31 245.66,399.1 243.31,393.82 247.87,397.37 248.48,391.61 250.65,396.97 
		254.05,392.29 253.26,398.02 258.55,395.67 254.99,400.24 260.75,400.84 255.39,403.02 260.07,406.42 254.34,405.62 	"/>
	<polygon class="st2" points="345.08,461.72 340.51,458.17 339.91,463.93 337.73,458.57 334.33,463.25 335.12,457.52 329.84,459.87 
		333.39,455.31 327.63,454.7 332.99,452.52 328.31,449.12 334.04,449.92 331.69,444.63 336.26,448.18 336.86,442.43 339.04,447.79 
		342.44,443.11 341.64,448.84 346.93,446.48 343.38,451.05 349.13,451.65 343.77,453.83 348.45,457.23 342.72,456.44 	"/>
	<polygon class="st2" points="456.48,111.67 451.91,108.11 451.31,113.87 449.13,108.51 445.73,113.19 446.53,107.46 441.24,109.82 
		444.79,105.25 439.04,104.65 444.4,102.47 439.72,99.07 445.45,99.86 443.09,94.57 447.66,98.13 448.26,92.37 450.44,97.73 
		453.84,93.05 453.05,98.78 458.33,96.43 454.78,100.99 460.54,101.6 455.18,103.78 459.86,107.17 454.13,106.38 	"/>
</g>
<g id="Layer_1">
	<path class="st3" d="M453.48,224.45H219.76c0,0-17.23-55.47,31.77-62.47c49-7,25.31-30.16,51.7-40.93
		c26.39-10.77,45.24,17.23,54.93,23.69s18.31-6.46,37.16,1.08c18.85,7.54,10.62,23.71,15.83,29.29c7.33,7.87,23.43,6.96,36.95,13.25
		C462.02,194.85,471.79,210.99,453.48,224.45z"/>
	<path class="st4" d="M174.68,241.25h247.15c0,0,18.22-33.64-33.6-37.89c-51.82-4.25-26.77-18.29-54.67-24.82
		s-47.84,10.45-58.09,14.37c-10.25,3.92-19.36-3.92-39.29,0.65c-19.93,4.57-11.23,14.38-16.74,17.76
		c-7.75,4.77-24.78,4.22-39.07,8.04C165.64,223.3,155.32,233.08,174.68,241.25z"/>
	<path class="st5" d="M433.96,263.69H242.63c0,0-14.11-30.56,26.01-34.41s20.72-16.61,42.32-22.55c21.6-5.93,37.03,9.49,44.97,13.05
		c7.94,3.56,14.99-3.56,30.42,0.59c15.43,4.15,8.7,13.06,12.96,16.14c6,4.33,19.18,3.84,30.25,7.3
		C440.95,247.38,448.95,256.27,433.96,263.69z"/>
	<path class="st6" d="M26.58,297.91h359.13c0,0,26.48-85.23-48.82-95.99c-75.3-10.76-38.89-46.34-79.44-62.89
		s-69.51,26.48-84.4,36.41c-14.89,9.93-28.13-9.93-57.1,1.65s-16.32,36.43-24.32,45.01c-11.26,12.09-36,10.7-56.77,20.36
		C13.45,252.42-1.56,277.22,26.58,297.91z"/>
	<path class="st4" d="M454.98,323.72H75.21c0,0-28-51.69,51.63-58.22c79.63-6.52,41.13-28.1,84.01-38.14
		c42.88-10.04,73.5,16.06,89.26,22.08c15.75,6.02,29.75-6.02,60.38,1s17.26,22.09,25.72,27.3c11.91,7.33,38.07,6.49,60.04,12.35
		C468.87,296.13,484.74,311.17,454.98,323.72z"/>
	<path class="st5" d="M56.57,358.2h294c0,0,21.68-46.95-39.97-52.88c-61.64-5.93-31.84-25.53-65.03-34.64
		c-33.19-9.12-56.9,14.59-69.1,20.06c-12.19,5.47-23.03-5.47-46.74,0.91s-13.36,20.07-19.91,24.8c-9.22,6.66-29.47,5.89-46.48,11.22
		C45.82,333.14,33.54,346.8,56.57,358.2z"/>
</g>
</svg>
